<svg width="30" height="30" viewBox="0 0 30 30" fill="none" xmlns="http://www.w3.org/2000/svg">
<path d="M15 23.75C15 21.875 15 8.12509 15 6.25005C15 4.375 18.399 3.78025 20 5.00005C21.7581 6.33953 21.3842 9.70415 19.375 10.625" stroke="white" stroke-linecap="round"/>
<path d="M21.25 8.74998C23.3188 8.39161 25.293 9.80175 25.625 11.875C25.9808 14.097 24.1253 16.2618 21.875 16.25" stroke="white" stroke-linecap="round"/>
<path d="M24.375 15.625C25.3621 17.0195 25.3621 18.6055 24.375 20C23.098 21.804 20.3918 22.1047 18.75 20.625" stroke="white" stroke-linecap="round"/>
<path d="M21.25 21.25C21.9404 22.9759 21.1009 24.9346 19.375 25.625C17.6491 26.3154 15.6904 25.4759 15 23.75" stroke="white"/>
<path d="M14.4189 23.7619C14.4189 21.8869 14.4189 8.13699 14.4189 6.26195C14.4189 4.38691 11.0199 3.79216 9.41894 5.01195C7.66087 6.35144 8.03471 9.71605 10.0439 10.6369" stroke="white" stroke-linecap="round"/>
<path d="M8.16895 8.76188C6.10012 8.40352 4.12593 9.81365 3.79395 11.8869C3.43815 14.1089 5.29369 16.2737 7.54395 16.2619" stroke="white" stroke-linecap="round"/>
<path d="M5.04395 15.6369C4.05681 17.0314 4.05681 18.6174 5.04395 20.0119C6.32093 21.8159 9.02711 22.1166 10.6689 20.6369" stroke="white" stroke-linecap="round"/>
<path d="M8.16895 21.2619C7.47859 22.9878 8.31806 24.9465 10.0439 25.6369C11.7698 26.3273 13.7286 25.4878 14.4189 23.7619" stroke="white"/>
</svg>
